<?xml version="1.0" standalone="no"?>
<!DOCTYPE svg PUBLIC "-//W3C//DTD SVG 20010904//EN"
 "http://www.w3.org/TR/2001/REC-SVG-20010904/DTD/svg10.dtd">
<svg version="1.0" xmlns="http://www.w3.org/2000/svg"
 width="512.000000pt" height="512.000000pt" viewBox="0 0 512.000000 512.000000"
 preserveAspectRatio="xMidYMid meet">

<g transform="translate(0.000000,512.000000) scale(0.100000,-0.100000)"
fill="#000000" stroke="none">
<path d="M0 2560 l0 -2560 2560 0 2560 0 0 2560 0 2560 -2560 0 -2560 0 0
-2560z m2730 2230 c410 -59 770 -366 894 -760 105 -332 55 -680 -140 -971 -90
-133 -221 -256 -359 -334 -27 -16 -51 -29 -53 -31 -2 -1 33 -154 77 -340 79
-333 167 -713 212 -908 19 -87 20 -100 7 -107 -10 -5 -14 -19 -12 -36 6 -45
-80 293 -172 677 -47 195 -105 437 -129 537 -25 99 -45 188 -45 197 0 8 23 26
50 40 222 112 416 336 503 581 94 267 75 569 -53 826 -131 263 -368 459 -660
546 -90 26 -106 28 -285 28 -179 0 -195 -2 -284 -28 -177 -53 -310 -129 -437
-249 -143 -136 -242 -298 -300 -493 -25 -82 -27 -105 -28 -270 -1 -171 0 -185
28 -280 57 -195 146 -348 277 -477 81 -81 200 -165 282 -200 26 -11 47 -22 47
-24 0 -4 -577 -2298 -586 -2332 l-6 -22 338 -2 c187 -1 321 -3 299 -5 -22 -2
-51 -9 -64 -16 -23 -11 -20 -12 35 -18 32 -3 -94 -6 -282 -7 -424 -2 -392 -19
-345 171 44 177 385 1551 472 1900 38 153 69 284 69 290 0 7 -26 25 -58 42
-81 43 -199 134 -269 209 -472 504 -378 1310 197 1691 139 92 293 153 445 175
73 11 260 11 335 0z m-620 -955 c39 -20 38 -27 -2 -14 -47 15 -78 31 -78 40 0
9 33 -2 80 -26z m-455 -30 c23 -13 46 -21 50 -17 5 4 5 2 2 -4 -3 -6 8 -24 26
-40 17 -16 24 -20 16 -9 -9 11 -14 26 -11 34 3 10 6 10 12 2 4 -7 30 -14 59
-16 31 -2 49 0 46 6 -4 5 -1 9 4 9 6 0 11 -5 11 -11 0 -8 5 -8 15 1 12 10 15
10 15 0 0 -10 3 -10 14 -1 10 8 16 9 21 1 4 -7 12 -7 26 0 13 8 25 7 40 -1 12
-6 19 -7 16 -2 -7 10 83 11 100 0 6 -4 15 -2 19 4 5 8 3 9 -6 4 -9 -6 -11 -4
-5 4 5 9 10 10 18 2 14 -14 30 -14 22 -1 -3 6 -1 10 4 10 6 0 11 5 11 11 0 6
-7 8 -17 4 -14 -5 -15 -4 -6 6 9 9 19 9 40 1 43 -18 114 -31 107 -21 -6 11 10
12 20 2 4 -5 33 -8 64 -8 36 0 56 -4 55 -11 -1 -6 4 -11 12 -11 7 0 11 7 8 16
-3 11 0 10 11 -3 9 -11 16 -15 16 -9 0 6 12 10 26 8 16 -1 28 3 31 13 5 13 8
12 20 -4 10 -13 13 -14 13 -3 0 11 2 12 9 0 11 -17 55 -5 44 12 -5 9 -3 9 8 1
8 -6 25 -10 39 -9 14 1 31 -3 39 -9 12 -9 13 -8 8 7 -5 13 -3 16 5 11 7 -4 24
-8 38 -9 14 -1 31 -5 38 -9 7 -4 12 -3 12 2 0 5 7 9 15 9 8 0 12 -4 10 -8 -9
-14 34 -16 54 -2 12 8 21 10 21 5 0 -5 12 -7 28 -5 21 4 24 2 12 -6 -9 -7 -10
-11 -3 -11 6 0 15 5 18 10 4 7 13 7 26 0 14 -8 19 -7 19 2 0 9 3 9 12 0 16
-16 41 -16 32 1 -6 10 -4 10 7 0 7 -7 23 -13 36 -13 13 0 23 -5 23 -11 0 -6 5
-7 13 -2 21 13 61 11 80 -6 17 -14 24 -13 90 21 73 38 154 64 165 54 8 -9 5
-10 -90 -55 -49 -22 -88 -43 -88 -45 0 -3 14 1 31 8 33 14 73 10 63 -5 -3 -5
2 -9 11 -9 9 0 13 5 10 10 -10 16 12 12 29 -6 40 -40 49 -74 47 -198 -1 -114
-55 -275 -130 -385 -9 -14 -23 -39 -31 -54 -22 -44 -143 -153 -237 -213 -46
-30 -94 -66 -106 -80 -28 -33 -37 -96 -21 -156 7 -29 8 -50 3 -54 -5 -3 -7 -9
-4 -14 3 -5 9 -30 14 -57 8 -39 6 -51 -6 -65 -9 -10 -11 -18 -5 -18 10 0 29
-83 24 -103 -1 -4 5 -21 14 -38 8 -17 14 -32 12 -34 -2 -2 -32 -17 -68 -34
-36 -17 -54 -28 -41 -25 13 3 29 7 35 8 6 1 17 6 25 10 9 6 12 5 7 -2 -3 -5 0
-12 6 -14 8 -3 2 -15 -18 -34 -36 -34 -77 -68 -84 -69 -3 0 -5 -11 -6 -25 0
-14 -5 -24 -11 -23 -5 1 -10 -4 -10 -12 0 -8 4 -12 8 -10 4 3 19 -1 33 -9 l26
-13 -45 -13 c-38 -10 -50 -10 -77 3 -18 8 -51 20 -73 27 -85 26 -137 53 -123
62 9 7 8 8 -6 4 -35 -12 -158 46 -201 94 -11 12 -45 39 -75 60 -58 40 -115 97
-143 143 -10 15 -14 27 -9 27 9 0 32 110 32 155 0 21 4 26 17 21 14 -6 14 -4
-2 14 -15 16 -19 37 -20 90 0 77 -17 105 -87 141 -114 59 -285 217 -348 323
-19 33 -44 69 -55 80 -32 32 -83 148 -101 229 -9 41 -18 140 -21 230 -6 179
-6 178 72 132z m1470 -2015 c3 -6 -1 -13 -11 -17 -15 -6 -15 -7 2 -21 40 -30
-411 1 -532 38 -18 5 77 9 253 9 179 1 284 -3 288 -9z m-5 -70 c0 -6 -41 -10
-102 -10 -56 0 -99 -2 -97 -4 2 -2 42 -7 89 -11 96 -7 118 -15 44 -15 -28 0
-55 -5 -62 -12 -9 -9 -12 -9 -12 2 0 11 -3 12 -8 3 -4 -6 -23 -13 -42 -16 -19
-2 1 -5 45 -6 44 -2 103 -6 130 -11 41 -6 26 -8 -80 -10 -103 -3 -118 -5 -70
-9 43 -5 53 -8 35 -12 -14 -4 18 -8 70 -9 l95 -4 -80 -6 -80 -6 80 -4 80 -4
-110 -6 c-60 -3 -90 -7 -65 -8 40 -2 96 -21 63 -22 -7 0 -13 -5 -13 -11 0 -5
5 -7 12 -3 7 4 8 3 4 -4 -4 -7 -17 -13 -29 -14 -12 -1 16 -5 63 -8 l85 -6 -85
-3 c-63 -3 -76 -5 -50 -10 l35 -7 -30 -6 c-16 -4 -75 -10 -130 -14 -79 -6 -92
-9 -60 -14 22 -3 46 -9 52 -13 7 -5 32 -12 55 -16 l43 -9 -40 -2 c-33 -3 -29
-4 25 -10 36 -4 90 -11 120 -16 l55 -9 -65 -6 -65 -6 90 -3 c77 -3 84 -4 45
-10 l-45 -7 59 -1 c76 -2 69 -10 -12 -14 -88 -4 -77 -18 16 -20 l77 -2 -95 -6
-95 -6 72 -2 c88 -2 109 -21 26 -24 l-58 -1 45 -7 c38 -6 40 -7 13 -8 -46 -3
-52 -22 -7 -22 66 0 27 -16 -46 -19 -20 -1 -22 -3 -10 -11 11 -7 -2 -10 -45
-11 -49 -1 -40 -4 52 -13 65 -6 118 -17 125 -24 11 -11 -2 -12 -69 -9 -45 2
-80 0 -77 -4 3 -5 -20 -9 -51 -9 -35 0 -54 -4 -50 -10 4 -6 -8 -11 -27 -12
-18 0 28 -6 102 -13 l135 -12 -250 -3 c-162 -2 -225 -6 -180 -10 39 -4 61 -8
50 -10 -11 -2 0 -6 25 -10 36 -6 25 -7 -55 -9 -55 -2 -117 -2 -139 -1 -22 1
-36 -2 -32 -8 3 -5 -17 -12 -46 -15 -41 -5 -54 -3 -65 11 -8 9 -12 11 -8 5 4
-9 -3 -13 -22 -12 -25 0 -26 1 -8 9 14 6 -1 9 -50 10 -99 2 -131 18 -37 19 39
1 72 4 72 9 0 9 9 8 -295 17 -137 4 -252 9 -254 11 -2 2 96 4 219 4 212 0 284
5 156 11 -37 2 -67 9 -77 18 -36 32 -48 41 -59 41 -6 0 -8 4 -5 10 4 6 -41 11
-117 13 l-123 3 154 2 c157 2 203 10 73 13 -40 1 -75 5 -78 10 -3 5 -35 10
-72 11 -53 2 -43 3 43 8 l110 6 -92 2 c-93 2 -142 21 -61 24 l43 1 -45 7 -45
7 40 3 c39 3 39 3 7 7 -47 6 -29 23 26 24 38 1 42 2 22 9 -21 7 -22 8 -5 9 17
1 17 3 5 11 -11 7 -6 10 20 10 32 1 33 2 17 14 -18 14 -18 15 0 25 10 6 14 11
9 11 -23 0 32 30 59 31 24 2 21 3 -15 9 -38 6 -40 7 -15 10 17 1 34 2 39 1 5
-1 16 1 25 5 13 5 11 8 -9 14 -17 6 -1 9 55 11 l80 3 -110 6 -110 6 92 2 c50
1 95 7 98 12 4 6 12 10 18 9 7 -1 30 -1 52 1 32 1 36 3 20 10 -17 7 -14 9 15
11 l35 2 -35 7 c-33 7 -32 7 17 9 86 2 72 20 -19 24 -57 2 -40 4 56 5 142 2
171 12 68 23 -51 5 -48 6 38 9 l95 2 -60 13 c-33 7 -48 13 -34 14 14 0 29 4
33 9 10 9 9 9 109 13 73 3 67 4 -53 9 l-135 6 164 2 c132 2 163 5 153 15 -10
9 -76 13 -245 15 -128 1 -245 4 -262 6 -16 1 165 4 403 4 282 1 432 -1 432 -8z
m-657 -57 c-7 -2 -19 -2 -25 0 -7 3 -2 5 12 5 14 0 19 -2 13 -5z m675 -640
c-16 -2 -40 -2 -55 0 -16 2 -3 4 27 4 30 0 43 -2 28 -4z m-99 -59 c9 -8 -746
-2 -799 6 -30 4 136 5 370 3 234 -3 427 -7 429 -9z m-441 -81 c-53 -2 -143 -2
-200 0 -57 1 -13 3 97 3 110 0 156 -2 103 -3z"/>
<path d="M2406 3758 c3 -5 10 -6 15 -3 13 9 11 12 -6 12 -8 0 -12 -4 -9 -9z"/>
<path d="M1775 3680 c9 -16 18 -30 21 -30 2 0 -2 14 -11 30 -9 17 -18 30 -21
30 -2 0 2 -13 11 -30z"/>
<path d="M1858 3593 c6 -2 18 -2 25 0 6 3 1 5 -13 5 -14 0 -19 -2 -12 -5z"/>
<path d="M2896 2133 c-6 -14 -5 -15 5 -6 7 7 10 15 7 18 -3 3 -9 -2 -12 -12z"/>
<path d="M2658 1653 c12 -2 30 -2 40 0 9 3 -1 5 -23 4 -22 0 -30 -2 -17 -4z"/>
<path d="M2728 1653 c7 -3 16 -2 19 1 4 3 -2 6 -13 5 -11 0 -14 -3 -6 -6z"/>
<path d="M2953 1483 c9 -2 23 -2 30 0 6 3 -1 5 -18 5 -16 0 -22 -2 -12 -5z"/>
<path d="M2088 1393 c7 -3 16 -2 19 1 4 3 -2 6 -13 5 -11 0 -14 -3 -6 -6z"/>
<path d="M2460 1060 c0 -6 7 -10 15 -10 8 0 15 2 15 4 0 2 -7 6 -15 10 -8 3
-15 1 -15 -4z"/>
<path d="M2758 1043 c6 -2 18 -2 25 0 6 3 1 5 -13 5 -14 0 -19 -2 -12 -5z"/>
</g>
</svg>
